<?xml version="1.0" encoding="UTF-8"?>
<svg id="Layer_2" data-name="Layer 2" xmlns="http://www.w3.org/2000/svg" viewBox="0 0 441.07 131.84">
  <defs>
    <style>
      .cls-1 {
        fill: #fe6168;
      }
    </style>
  </defs>
  <g id="Layer_1-2" data-name="Layer 1">
    <g>
      <g>
        <path class="cls-1" d="M70.77,130.65V49.35h17.12l1.49,5.06c7.74-4.17,13.85-6.1,19.66-6.1,6.85,0,12.21,2.08,15.64,6.7,8.64-4.62,15.34-6.7,21.44-6.7,12.36,0,20.25,6.85,20.25,22.93v59.41h-21.44v-55.84c0-9.23-2.09-11.17-10.28-11.17h-6.25c.45,2.23.74,4.76.74,7.59v59.41h-21.29v-55.84c0-9.23-2.09-11.17-10.28-11.17h-5.51v67.01h-21.29Z"/>
        <path class="cls-1" d="M177.22,33.12c0-6.85,3.87-9.38,11.77-9.38s11.61,2.53,11.61,9.38-3.87,9.23-11.61,9.23-11.77-2.53-11.77-9.23ZM178.27,130.65V49.35h21.29v81.31h-21.29Z"/>
        <path class="cls-1" d="M212.07,130.65V24.92h21.29v105.73h-21.29Z"/>
        <path class="cls-1" d="M245.86,130.65V24.92h21.29v105.73h-21.29Z"/>
        <path class="cls-1" d="M278.62,33.12c0-6.85,3.87-9.38,11.77-9.38s11.61,2.53,11.61,9.38-3.87,9.23-11.61,9.23-11.77-2.53-11.77-9.23ZM279.66,130.65V49.35h21.29v81.31h-21.29Z"/>
        <path class="cls-1" d="M310.63,91.49v-2.98c0-26.36,10.72-40.2,30.53-40.2s30.53,13.85,30.53,40.2v2.98c0,26.36-10.57,40.35-30.53,40.35s-30.53-14-30.53-40.35ZM349.65,104.89v-29.63c0-7.89-2.83-12.21-8.49-12.21s-8.49,4.32-8.49,12.21v29.63c0,7.89,2.98,12.21,8.49,12.21s8.49-4.32,8.49-12.21Z"/>
        <path class="cls-1" d="M381.36,130.65V49.35h17.12l1.49,5.06c8.04-4.17,14.3-6.1,20.4-6.1,12.66,0,20.7,6.85,20.7,22.93v59.41h-21.29v-56.73c0-6.85-3.43-10.28-10.28-10.28h-6.85v67.01h-21.29Z"/>
      </g>
      <g>
        <path class="cls-1" d="M71.71,38.28V0h7.93v38.28h-7.93Z"/>
        <path class="cls-1" d="M84.58,38.28V7.99h6.38l.56,1.89c3-1.55,5.33-2.28,7.6-2.28,4.72,0,7.71,2.55,7.71,8.54v22.14h-7.93v-21.14c0-2.55-1.28-3.83-3.83-3.83h-2.55v24.97h-7.93Z"/>
      </g>
      <path class="cls-1" d="M22.25,23.94H0L13.35.77h39.49v129.78h-30.59V23.94Z"/>
    </g>
  </g>
</svg>